<mxfile host="Electron" agent="Mozilla/5.0 (Windows NT 10.0; Win64; x64) AppleWebKit/537.36 (KHTML, like Gecko) draw.io/26.0.4 Chrome/128.0.6613.186 Electron/32.2.5 Safari/537.36" version="26.0.4">
  <diagram name="Page-1" id="_HCvl0YmeWPvtZPQ_Uj9">
    <mxGraphModel dx="1185" dy="775" grid="1" gridSize="10" guides="1" tooltips="1" connect="1" arrows="1" fold="1" page="1" pageScale="1" pageWidth="850" pageHeight="1100" math="0" shadow="0">
      <root>
        <mxCell id="0" />
        <mxCell id="1" parent="0" />
        <mxCell id="8kB0kHyKgQLEjqnZo5WQ-4" value="Linux Container Host" style="rounded=0;whiteSpace=wrap;html=1;align=center;verticalAlign=top;allowArrows=1;" parent="1" vertex="1">
          <mxGeometry x="20" y="130" width="810" height="490" as="geometry" />
        </mxCell>
        <mxCell id="8kB0kHyKgQLEjqnZo5WQ-6" value="Bridged&lt;div&gt;192.168.220.0&lt;div&gt;&lt;br&gt;&lt;/div&gt;&lt;/div&gt;" style="image;sketch=0;aspect=fixed;html=1;points=[];align=center;fontSize=12;image=img/lib/mscae/Docker.svg;" parent="1" vertex="1">
          <mxGeometry x="40" y="170" width="73.17" height="60" as="geometry" />
        </mxCell>
        <mxCell id="8kB0kHyKgQLEjqnZo5WQ-14" value="Loopback (192.168.20.2 Port 48900)" style="rounded=0;orthogonalLoop=1;jettySize=auto;html=1;exitX=1;exitY=0.5;exitDx=0;exitDy=0;entryX=0;entryY=0.5;entryDx=0;entryDy=0;edgeStyle=orthogonalEdgeStyle;startArrow=classic;align=center;verticalAlign=top;" parent="1" source="8kB0kHyKgQLEjqnZo5WQ-7" target="8kB0kHyKgQLEjqnZo5WQ-8" edge="1">
          <mxGeometry relative="1" as="geometry" />
        </mxCell>
        <mxCell id="8kB0kHyKgQLEjqnZo5WQ-15" value="Loopback (192.168.20.2 Port 48900)" style="rounded=0;orthogonalLoop=1;jettySize=auto;html=1;exitX=1;exitY=0.5;exitDx=0;exitDy=0;entryX=0;entryY=0.5;entryDx=0;entryDy=0;edgeStyle=orthogonalEdgeStyle;anchorPointDirection=0;startArrow=classic;" parent="1" source="8kB0kHyKgQLEjqnZo5WQ-7" target="8kB0kHyKgQLEjqnZo5WQ-10" edge="1">
          <mxGeometry relative="1" as="geometry">
            <Array as="points">
              <mxPoint x="470" y="355" />
              <mxPoint x="470" y="495" />
            </Array>
          </mxGeometry>
        </mxCell>
        <mxCell id="8kB0kHyKgQLEjqnZo5WQ-7" value="AdsRouter&amp;nbsp;&lt;div&gt;192.168.20.2&lt;/div&gt;&lt;div&gt;&lt;br&gt;&lt;/div&gt;&lt;div&gt;LoopbackPort 48900&lt;/div&gt;&lt;div&gt;ExternalLoopbackPort 48898&lt;/div&gt;" style="rounded=0;whiteSpace=wrap;html=1;" parent="1" vertex="1">
          <mxGeometry x="90" y="280" width="260" height="150" as="geometry" />
        </mxCell>
        <mxCell id="8kB0kHyKgQLEjqnZo5WQ-8" value="AdsClient&lt;div&gt;192.168.20.4&lt;/div&gt;&lt;div&gt;&lt;br&gt;&lt;/div&gt;" style="rounded=0;whiteSpace=wrap;html=1;" parent="1" vertex="1">
          <mxGeometry x="640" y="310" width="140" height="90" as="geometry" />
        </mxCell>
        <mxCell id="8kB0kHyKgQLEjqnZo5WQ-10" value="AdsServer&lt;div&gt;192.168.20.3&lt;/div&gt;&lt;div&gt;&lt;br&gt;&lt;/div&gt;" style="rounded=0;whiteSpace=wrap;html=1;" parent="1" vertex="1">
          <mxGeometry x="640" y="450" width="140" height="90" as="geometry" />
        </mxCell>
        <mxCell id="8kB0kHyKgQLEjqnZo5WQ-17" value="&lt;div&gt;External&lt;/div&gt;192.168.20.2&lt;div&gt;48898&lt;/div&gt;" style="endArrow=classic;startArrow=classic;html=1;rounded=0;entryX=0.5;entryY=1;entryDx=0;entryDy=0;exitX=0.501;exitY=0.116;exitDx=0;exitDy=0;exitPerimeter=0;" parent="1" source="8kB0kHyKgQLEjqnZo5WQ-18" target="8kB0kHyKgQLEjqnZo5WQ-7" edge="1">
          <mxGeometry width="50" height="50" relative="1" as="geometry">
            <mxPoint x="610" y="530" as="sourcePoint" />
            <mxPoint x="660" y="480" as="targetPoint" />
          </mxGeometry>
        </mxCell>
        <mxCell id="8kB0kHyKgQLEjqnZo5WQ-18" value="" style="ellipse;shape=cloud;whiteSpace=wrap;html=1;" parent="1" vertex="1">
          <mxGeometry x="160" y="490" width="120" height="80" as="geometry" />
        </mxCell>
        <mxCell id="giS17DBfkPcXTDAue1s6-1" value="&lt;div&gt;TcXaeMgmt/Powershell&lt;/div&gt;&lt;div&gt;192.168.20.5&lt;/div&gt;&lt;div&gt;&lt;br&gt;&lt;/div&gt;" style="rounded=0;whiteSpace=wrap;html=1;" parent="1" vertex="1">
          <mxGeometry x="640" y="160" width="140" height="90" as="geometry" />
        </mxCell>
        <mxCell id="giS17DBfkPcXTDAue1s6-3" value="Loopback (192.168.20.2 Port 48900)" style="rounded=0;orthogonalLoop=1;jettySize=auto;html=1;exitX=1;exitY=0.5;exitDx=0;exitDy=0;entryX=0;entryY=0.5;entryDx=0;entryDy=0;edgeStyle=orthogonalEdgeStyle;anchorPointDirection=0;startArrow=classic;" parent="1" source="8kB0kHyKgQLEjqnZo5WQ-7" target="giS17DBfkPcXTDAue1s6-1" edge="1">
          <mxGeometry relative="1" as="geometry">
            <mxPoint x="420" y="365" as="sourcePoint" />
            <mxPoint x="580" y="505" as="targetPoint" />
            <Array as="points">
              <mxPoint x="470" y="355" />
              <mxPoint x="470" y="205" />
            </Array>
          </mxGeometry>
        </mxCell>
      </root>
    </mxGraphModel>
  </diagram>
</mxfile>
